REM DIRINDEX 1\2,1\3,1\4,1\5
REM DIRNAME cjc046,folder01,folder02,folder03,folder04
TITLE ""
FILE "143.mp3" MP3
  TRACK 01 AUDIO
    TITLE "0:"
    INDEX 01 00:00:00
  TRACK 02 AUDIO
    TITLE "2:cjc046_3841"
    INDEX 01 00:00:13
  TRACK 03 AUDIO
    TITLE "0:"
    INDEX 01 00:01:28
  TRACK 04 AUDIO
    TITLE "3:cjc046_3842"
    INDEX 01 00:01:50
  TRACK 05 AUDIO
    TITLE "0:"
    INDEX 01 00:02:55
  TRACK 06 AUDIO
    TITLE "4:cjc046_3843"
    INDEX 01 00:02:71
  TRACK 07 AUDIO
    TITLE "0:"
    INDEX 01 00:04:13
  TRACK 08 AUDIO
    TITLE "2:cjc046_3844"
    INDEX 01 00:05:22
  TRACK 09 AUDIO
    TITLE "0:"
    INDEX 01 00:06:28
  TRACK 10 AUDIO
    TITLE "3:cjc046_3845"
    INDEX 01 00:06:47
  TRACK 11 AUDIO
    TITLE "0:"
    INDEX 01 00:07:56
  TRACK 12 AUDIO
    TITLE "4:cjc046_3846"
    INDEX 01 00:07:62
  TRACK 13 AUDIO
    TITLE "0:"
    INDEX 01 00:08:70
  TRACK 14 AUDIO
    TITLE "2:cjc046_3847"
    INDEX 01 00:09:71
  TRACK 15 AUDIO
    TITLE "0:"
    INDEX 01 00:11:01
  TRACK 16 AUDIO
    TITLE "3:cjc046_3848"
    INDEX 01 00:11:19
  TRACK 17 AUDIO
    TITLE "0:"
    INDEX 01 00:12:28
  TRACK 18 AUDIO
    TITLE "4:cjc046_3849"
    INDEX 01 00:12:44
  TRACK 19 AUDIO
    TITLE "0:"
    INDEX 01 00:13:49
  TRACK 20 AUDIO
    TITLE "2:cjc046_3850"
    INDEX 01 00:14:56
  TRACK 21 AUDIO
    TITLE "0:"
    INDEX 01 00:15:52
  TRACK 22 AUDIO
    TITLE "3:cjc046_3851"
    INDEX 01 00:15:72
  TRACK 23 AUDIO
    TITLE "0:"
    INDEX 01 00:17:43
  TRACK 24 AUDIO
    TITLE "4:cjc046_3852"
    INDEX 01 00:17:59
  TRACK 25 AUDIO
    TITLE "0:"
    INDEX 01 00:18:52
  TRACK 26 AUDIO
    TITLE "2:cjc046_3853"
    INDEX 01 00:19:56
  TRACK 27 AUDIO
    TITLE "0:"
    INDEX 01 00:20:65
  TRACK 28 AUDIO
    TITLE "3:cjc046_3854"
    INDEX 01 00:21:04
  TRACK 29 AUDIO
    TITLE "0:"
    INDEX 01 00:22:25
  TRACK 30 AUDIO
    TITLE "4:cjc046_3855"
    INDEX 01 00:22:30
  TRACK 31 AUDIO
    TITLE "0:"
    INDEX 01 00:23:40
  TRACK 32 AUDIO
    TITLE "2:cjc046_3856"
    INDEX 01 00:24:43
  TRACK 33 AUDIO
    TITLE "0:"
    INDEX 01 00:25:58
  TRACK 34 AUDIO
    TITLE "3:cjc046_3857"
    INDEX 01 00:26:09
  TRACK 35 AUDIO
    TITLE "0:"
    INDEX 01 00:27:39
  TRACK 36 AUDIO
    TITLE "4:cjc046_3858"
    INDEX 01 00:27:43
  TRACK 37 AUDIO
    TITLE "0:"
    INDEX 01 00:28:55
  TRACK 38 AUDIO
    TITLE "2:cjc046_3859"
    INDEX 01 00:29:60
  TRACK 39 AUDIO
    TITLE "0:"
    INDEX 01 00:31:04
  TRACK 40 AUDIO
    TITLE "3:cjc046_3860"
    INDEX 01 00:31:24
  TRACK 41 AUDIO
    TITLE "0:"
    INDEX 01 00:32:31
  TRACK 42 AUDIO
    TITLE "4:cjc046_3861"
    INDEX 01 00:32:41
  TRACK 43 AUDIO
    TITLE "0:"
    INDEX 01 00:33:58
  TRACK 44 AUDIO
    TITLE "2:cjc046_3862"
    INDEX 01 00:34:69
  TRACK 45 AUDIO
    TITLE "0:"
    INDEX 01 00:36:07
  TRACK 46 AUDIO
    TITLE "3:cjc046_3863"
    INDEX 01 00:36:25
  TRACK 47 AUDIO
    TITLE "0:"
    INDEX 01 00:37:46
  TRACK 48 AUDIO
    TITLE "4:cjc046_3864"
    INDEX 01 00:37:59
  TRACK 49 AUDIO
    TITLE "0:"
    INDEX 01 00:38:73
  TRACK 50 AUDIO
    TITLE "2:cjc046_3865"
    INDEX 01 00:40:07
  TRACK 51 AUDIO
    TITLE "0:"
    INDEX 01 00:41:16
  TRACK 52 AUDIO
    TITLE "3:cjc046_3866"
    INDEX 01 00:41:38
  TRACK 53 AUDIO
    TITLE "0:"
    INDEX 01 00:42:55
  TRACK 54 AUDIO
    TITLE "4:cjc046_3867"
    INDEX 01 00:42:65
  TRACK 55 AUDIO
    TITLE "0:"
    INDEX 01 00:44:01
  TRACK 56 AUDIO
    TITLE "2:cjc046_3868"
    INDEX 01 00:45:08
  TRACK 57 AUDIO
    TITLE "0:"
    INDEX 01 00:46:19
  TRACK 58 AUDIO
    TITLE "3:cjc046_3869"
    INDEX 01 00:46:45
  TRACK 59 AUDIO
    TITLE "0:"
    INDEX 01 00:47:34
  TRACK 60 AUDIO
    TITLE "4:cjc046_3870"
    INDEX 01 00:47:56
  TRACK 61 AUDIO
    TITLE "0:"
    INDEX 01 00:48:67
  TRACK 62 AUDIO
    TITLE "2:cjc046_3871"
    INDEX 01 00:49:74
  TRACK 63 AUDIO
    TITLE "0:"
    INDEX 01 00:51:05
  TRACK 64 AUDIO
    TITLE "3:cjc046_3872"
    INDEX 01 00:51:26
  TRACK 65 AUDIO
    TITLE "0:"
    INDEX 01 00:53:13
  TRACK 66 AUDIO
    TITLE "4:cjc046_3873"
    INDEX 01 00:53:33
  TRACK 67 AUDIO
    TITLE "0:"
    INDEX 01 00:54:34
  TRACK 68 AUDIO
    TITLE "2:cjc046_3874"
    INDEX 01 00:55:42
  TRACK 69 AUDIO
    TITLE "0:"
    INDEX 01 00:56:41
  TRACK 70 AUDIO
    TITLE "3:cjc046_3875"
    INDEX 01 00:56:53
  TRACK 71 AUDIO
    TITLE "0:"
    INDEX 01 00:58:01
  TRACK 72 AUDIO
    TITLE "4:cjc046_3876"
    INDEX 01 00:58:15
  TRACK 73 AUDIO
    TITLE "0:"
    INDEX 01 00:59:14
  TRACK 74 AUDIO
    TITLE "2:cjc046_3877"
    INDEX 01 01:00:12
  TRACK 75 AUDIO
    TITLE "0:"
    INDEX 01 01:01:13
  TRACK 76 AUDIO
    TITLE "3:cjc046_3878"
    INDEX 01 01:01:33
  TRACK 77 AUDIO
    TITLE "0:"
    INDEX 01 01:02:44
  TRACK 78 AUDIO
    TITLE "4:cjc046_3879"
    INDEX 01 01:02:55
  TRACK 79 AUDIO
    TITLE "0:"
    INDEX 01 01:03:59
  TRACK 80 AUDIO
    TITLE "2:cjc046_3880"
    INDEX 01 01:04:68
  TRACK 81 AUDIO
    TITLE "0:"
    INDEX 01 01:06:08
  TRACK 82 AUDIO
    TITLE "3:cjc046_3881"
    INDEX 01 01:06:26
  TRACK 83 AUDIO
    TITLE "0:"
    INDEX 01 01:08:11
  TRACK 84 AUDIO
    TITLE "4:cjc046_3882"
    INDEX 01 01:08:29
  TRACK 85 AUDIO
    TITLE "0:"
    INDEX 01 01:09:44
  TRACK 86 AUDIO
    TITLE "2:cjc046_3883"
    INDEX 01 01:10:49
  TRACK 87 AUDIO
    TITLE "0:"
    INDEX 01 01:11:64
  TRACK 88 AUDIO
    TITLE "3:cjc046_3884"
    INDEX 01 01:12:05
  TRACK 89 AUDIO
    TITLE "0:"
    INDEX 01 01:13:16
  TRACK 90 AUDIO
    TITLE "4:cjc046_3885"
    INDEX 01 01:13:34
  TRACK 91 AUDIO
    TITLE "0:"
    INDEX 01 01:14:53
  TRACK 92 AUDIO
    TITLE "2:cjc046_3886"
    INDEX 01 01:15:58
  TRACK 93 AUDIO
    TITLE "0:"
    INDEX 01 01:16:71
  TRACK 94 AUDIO
    TITLE "3:cjc046_3887"
    INDEX 01 01:17:12
  TRACK 95 AUDIO
    TITLE "0:"
    INDEX 01 01:18:41
  TRACK 96 AUDIO
    TITLE "4:cjc046_3888"
    INDEX 01 01:18:56
  TRACK 97 AUDIO
    TITLE "0:"
    INDEX 01 01:19:68
